<svg xmlns="http://www.w3.org/2000/svg" viewBox="0 0 24 24" fill="none"><path fill="#dc7157" d="M12 20.962c-.311 0-.644-.088-1-.288-2.433-1.356-5.367-1.667-7.8-1.123-1.4.311-2.2-.166-2.2-1.6V6.407c0-.911.433-1.69 1.5-2.067 3.122-1.089 7.211-.444 9.5 1.545 2.289-1.99 6.378-2.634 9.5-1.545 1.067.378 1.5 1.156 1.5 2.067V17.95c0 1.434-.8 1.911-2.2 1.6-2.433-.544-5.367-.233-7.8 1.123-.356.2-.689.288-1 .288"/><path fill="#efebdc" d="M3.381 3.403c2.962-1.043 7.07.074 8.623 2.479v12.876c-2.42-1.543-5.62-1.874-8.934-1.323V3.855c0-.202.121-.385.311-.452"/><path fill="#fbf2df" d="M20.626 3.403c-2.962-1.043-7.07.074-8.622 2.479v12.876c2.42-1.543 5.62-1.874 8.934-1.323V3.855a.475.475 0 0 0-.312-.452"/></svg>
