<svg xmlns="http://www.w3.org/2000/svg" viewBox="0 0 24 24" fill="none"><path fill="#dfdfdf" d="M6.5 21.452h11c2.35 0 4-1.65 4-4v-10c0-2.35-1.65-4-4-4h-11c-2.35 0-4 1.65-4 4v10c0 2.35 1.65 4 4 4"/><path fill="#2e9eff" d="M17.5 3.452c2.35 0 4 1.65 4 4v2h-19v-2c0-2.35 1.65-4 4-4z"/><path fill="#68c4ff" d="M21.5 8.452v2h-19v-2z"/><path fill="#4d4d4d" d="M8.51 3.452v2c0 .55-.45 1-1 1s-1-.45-1-1v-2c0-.55.45-1 1-1s1 .45 1 1M17.49 3.452v2c0 .55-.45 1-1 1s-1-.45-1-1v-2c0-.55.45-1 1-1s1 .45 1 1"/></svg>
